REM DIRINDEX 1\3,1\2\4,1\2\5,1\2\6
REM DIRNAME cjc137,folder01,folder02,folder03,folder04,folder05
TITLE ""
FILE "023.mp3" MP3
  TRACK 01 AUDIO
    TITLE "4:cjc137_0927"
    INDEX 01 00:00:00
  TRACK 02 AUDIO
    TITLE "0:"
    INDEX 01 00:01:26
  TRACK 03 AUDIO
    TITLE "6:cjc137_0928"
    INDEX 01 00:01:36
  TRACK 04 AUDIO
    TITLE "0:"
    INDEX 01 00:03:15
  TRACK 05 AUDIO
    TITLE "5:cjc137_0929"
    INDEX 01 00:03:23
  TRACK 06 AUDIO
    TITLE "0:"
    INDEX 01 00:04:48
  TRACK 07 AUDIO
    TITLE "4:cjc137_0930"
    INDEX 01 00:05:57
  TRACK 08 AUDIO
    TITLE "0:"
    INDEX 01 00:06:61
  TRACK 09 AUDIO
    TITLE "6:cjc137_0931"
    INDEX 01 00:06:69
  TRACK 10 AUDIO
    TITLE "0:"
    INDEX 01 00:07:68
  TRACK 11 AUDIO
    TITLE "5:cjc137_0932"
    INDEX 01 00:07:72
  TRACK 12 AUDIO
    TITLE "0:"
    INDEX 01 00:09:02
  TRACK 13 AUDIO
    TITLE "4:cjc137_0933"
    INDEX 01 00:10:12
  TRACK 14 AUDIO
    TITLE "0:"
    INDEX 01 00:11:13
  TRACK 15 AUDIO
    TITLE "6:cjc137_0934"
    INDEX 01 00:11:23
  TRACK 16 AUDIO
    TITLE "0:"
    INDEX 01 00:12:46
  TRACK 17 AUDIO
    TITLE "5:cjc137_0935"
    INDEX 01 00:12:54
  TRACK 18 AUDIO
    TITLE "0:"
    INDEX 01 00:13:55
  TRACK 19 AUDIO
    TITLE "4:cjc137_0936"
    INDEX 01 00:14:66
  TRACK 20 AUDIO
    TITLE "0:"
    INDEX 01 00:15:68
  TRACK 21 AUDIO
    TITLE "6:cjc137_0937"
    INDEX 01 00:16:00
  TRACK 22 AUDIO
    TITLE "0:"
    INDEX 01 00:16:69
  TRACK 23 AUDIO
    TITLE "5:cjc137_0938"
    INDEX 01 00:17:00
  TRACK 24 AUDIO
    TITLE "0:"
    INDEX 01 00:18:03
  TRACK 25 AUDIO
    TITLE "4:cjc137_0939"
    INDEX 01 00:19:09
  TRACK 26 AUDIO
    TITLE "0:"
    INDEX 01 00:20:12
  TRACK 27 AUDIO
    TITLE "6:cjc137_0940"
    INDEX 01 00:20:22
  TRACK 28 AUDIO
    TITLE "0:"
    INDEX 01 00:21:23
  TRACK 29 AUDIO
    TITLE "5:cjc137_0941"
    INDEX 01 00:21:29
  TRACK 30 AUDIO
    TITLE "0:"
    INDEX 01 00:22:34
  TRACK 31 AUDIO
    TITLE "4:cjc137_0942"
    INDEX 01 00:23:44
  TRACK 32 AUDIO
    TITLE "0:"
    INDEX 01 00:24:45
  TRACK 33 AUDIO
    TITLE "6:cjc137_0943"
    INDEX 01 00:24:55
  TRACK 34 AUDIO
    TITLE "0:"
    INDEX 01 00:26:01
  TRACK 35 AUDIO
    TITLE "5:cjc137_0944"
    INDEX 01 00:26:07
  TRACK 36 AUDIO
    TITLE "0:"
    INDEX 01 00:27:10
  TRACK 37 AUDIO
    TITLE "4:cjc137_0945"
    INDEX 01 00:28:17
  TRACK 38 AUDIO
    TITLE "0:"
    INDEX 01 00:29:17
  TRACK 39 AUDIO
    TITLE "6:cjc137_0946"
    INDEX 01 00:29:25
  TRACK 40 AUDIO
    TITLE "0:"
    INDEX 01 00:30:46
  TRACK 41 AUDIO
    TITLE "5:cjc137_0947"
    INDEX 01 00:30:52
  TRACK 42 AUDIO
    TITLE "0:"
    INDEX 01 00:31:53
  TRACK 43 AUDIO
    TITLE "4:cjc137_0948"
    INDEX 01 00:32:60
  TRACK 44 AUDIO
    TITLE "0:"
    INDEX 01 00:33:64
  TRACK 45 AUDIO
    TITLE "6:cjc137_0949"
    INDEX 01 00:33:73
  TRACK 46 AUDIO
    TITLE "0:"
    INDEX 01 00:34:71
  TRACK 47 AUDIO
    TITLE "5:cjc137_0950"
    INDEX 01 00:35:02
  TRACK 48 AUDIO
    TITLE "0:"
    INDEX 01 00:36:07
  TRACK 49 AUDIO
    TITLE "4:cjc137_0951"
    INDEX 01 00:37:14
  TRACK 50 AUDIO
    TITLE "0:"
    INDEX 01 00:38:14
  TRACK 51 AUDIO
    TITLE "6:cjc137_0952"
    INDEX 01 00:38:22
  TRACK 52 AUDIO
    TITLE "0:"
    INDEX 01 00:39:21
  TRACK 53 AUDIO
    TITLE "5:cjc137_0953"
    INDEX 01 00:39:27
  TRACK 54 AUDIO
    TITLE "0:"
    INDEX 01 00:40:28
  TRACK 55 AUDIO
    TITLE "4:cjc137_0954"
    INDEX 01 00:41:34
  TRACK 56 AUDIO
    TITLE "0:"
    INDEX 01 00:42:37
  TRACK 57 AUDIO
    TITLE "6:cjc137_0955"
    INDEX 01 00:42:47
  TRACK 58 AUDIO
    TITLE "0:"
    INDEX 01 00:43:48
  TRACK 59 AUDIO
    TITLE "5:cjc137_0956"
    INDEX 01 00:43:56
  TRACK 60 AUDIO
    TITLE "0:"
    INDEX 01 00:44:60
  TRACK 61 AUDIO
    TITLE "4:cjc137_0957"
    INDEX 01 00:45:71
  TRACK 62 AUDIO
    TITLE "0:"
    INDEX 01 00:47:09
  TRACK 63 AUDIO
    TITLE "6:cjc137_0958"
    INDEX 01 00:47:17
  TRACK 64 AUDIO
    TITLE "0:"
    INDEX 01 00:48:18
  TRACK 65 AUDIO
    TITLE "5:cjc137_0959"
    INDEX 01 00:48:26
  TRACK 66 AUDIO
    TITLE "0:"
    INDEX 01 00:49:41
  TRACK 67 AUDIO
    TITLE "4:cjc137_0960"
    INDEX 01 00:50:50
  TRACK 68 AUDIO
    TITLE "0:"
    INDEX 01 00:51:63
  TRACK 69 AUDIO
    TITLE "6:cjc137_0961"
    INDEX 01 00:51:73
  TRACK 70 AUDIO
    TITLE "0:"
    INDEX 01 00:52:73
  TRACK 71 AUDIO
    TITLE "5:cjc137_0962"
    INDEX 01 00:53:08
  TRACK 72 AUDIO
    TITLE "0:"
    INDEX 01 00:54:19
  TRACK 73 AUDIO
    TITLE "4:cjc137_0963"
    INDEX 01 00:55:30
  TRACK 74 AUDIO
    TITLE "0:"
    INDEX 01 00:56:57
  TRACK 75 AUDIO
    TITLE "6:cjc137_0964"
    INDEX 01 00:56:69
  TRACK 76 AUDIO
    TITLE "0:"
    INDEX 01 00:59:49
  TRACK 77 AUDIO
    TITLE "5:cjc137_0965"
    INDEX 01 00:59:59
  TRACK 78 AUDIO
    TITLE "0:"
    INDEX 01 01:01:13
  TRACK 79 AUDIO
    TITLE "4:cjc137_0966"
    INDEX 01 01:02:22
  TRACK 80 AUDIO
    TITLE "0:"
    INDEX 01 01:03:26
  TRACK 81 AUDIO
    TITLE "6:cjc137_0967"
    INDEX 01 01:03:35
  TRACK 82 AUDIO
    TITLE "0:"
    INDEX 01 01:04:27
  TRACK 83 AUDIO
    TITLE "5:cjc137_0968"
    INDEX 01 01:04:35
  TRACK 84 AUDIO
    TITLE "0:"
    INDEX 01 01:05:38
